Coordinates
version=1
nRows=65
nColumns=12
inDegrees=yes

Units are S.I. units (second, meters, Newtons, ...)
Angles are in degrees

endheader
time	SC_y	SC_z	SC_x	AC_y	AC_z	AC_x	GH_y	GH_z	GH_yy	EL_x	PS_y
       0.0              -49.13          3.023          54.32          63.34          -2.99          18.98         -103.4          11.04          108.9          32.09          50.97
   0.01615              -49.13          3.023          54.32          63.34          -2.99          18.98         -103.4          11.05          108.9           32.1          50.98
   0.03229              -49.13          3.024          54.32          63.34          -2.99          18.98         -103.4          11.06          108.9          32.11          50.99
   0.04844              -49.13          3.024          54.32          63.33          -2.99          18.97         -103.4          11.07          108.9          32.12           51.0
   0.06458              -49.12          3.025          54.32          63.32          -2.99          18.97         -103.4          11.09          108.9          32.13          51.01
   0.08073              -49.12          3.025          54.32          63.32          -2.99          18.97         -103.5           11.1          108.9          32.14          51.03
   0.09687              -49.12          3.026          54.32          63.31          -2.99          18.96         -103.5          11.11          108.9          32.15          51.04
     0.113              -49.11          3.026          54.32          63.31          -2.99          18.96         -103.5          11.13          108.9          32.16          51.05
    0.1292              -49.11          3.027          54.32           63.3         -2.989          18.96         -103.5          11.15          108.9          32.17          51.06
    0.1453               -49.1          3.028          54.32          63.29         -2.989          18.95         -103.5          11.17          108.9          32.19          51.08
    0.1615               -49.1          3.028          54.32          63.28         -2.989          18.95         -103.5          11.19          108.9           32.2           51.1
    0.1776              -49.09          3.029          54.32          63.28         -2.989          18.94         -103.5          11.21          108.9          32.22          51.11
    0.1937              -49.09           3.03          54.33          63.27         -2.989          18.94         -103.6          11.23          108.9          32.23          51.13
    0.2099              -49.08          3.031          54.33          63.26         -2.989          18.93         -103.6          11.26          108.9          32.25          51.15
     0.226              -49.08          3.032          54.33          63.25         -2.989          18.92         -103.6          11.29          108.9          32.27          51.17
    0.2422              -49.07          3.033          54.33          63.23         -2.988          18.92         -103.6          11.32          108.9          32.29           51.2
    0.2583              -49.06          3.034          54.33          63.22         -2.988          18.91         -103.6          11.35          108.9          32.32          51.22
    0.2745              -49.06          3.035          54.33          63.21         -2.988           18.9         -103.7          11.38          108.9          32.34          51.25
    0.2906              -49.05          3.036          54.33          63.19         -2.988          18.89         -103.7          11.42          108.9          32.37          51.28
    0.3068              -49.04          3.038          54.33          63.18         -2.988          18.88         -103.7          11.46          108.9           32.4          51.32
    0.3229              -49.03          3.039          54.33          63.16         -2.987          18.87         -103.8          11.51          108.9          32.43          51.35
     0.339              -49.01          3.041          54.33          63.14         -2.987          18.86         -103.8          11.56          108.9          32.47          51.39
    0.3552               -49.0          3.043          54.33          63.12         -2.987          18.85         -103.8          11.62          108.9          32.51          51.44
    0.3713              -48.99          3.045          54.33          63.09         -2.986          18.84         -103.9          11.68          108.9          32.55          51.49
    0.3875              -48.97          3.047          54.33          63.07         -2.986          18.82         -103.9          11.75          108.9           32.6          51.54
    0.4036              -48.95           3.05          54.33          63.04         -2.986           18.8         -104.0          11.83          108.9          32.66           51.6
    0.4198              -48.93          3.053          54.33           63.0         -2.985          18.78         -104.1          11.91          108.8          32.72          51.67
    0.4359              -48.91          3.056          54.33          62.96         -2.985          18.76         -104.1          12.01          108.8          32.79          51.75
    0.4521              -48.89           3.06          54.34          62.92         -2.984          18.74         -104.2          12.12          108.8          32.87          51.84
    0.4682              -48.86          3.064          54.34          62.87         -2.983          18.71         -104.3          12.25          108.8          32.96          51.94
    0.4844              -48.83          3.069          54.34          62.82         -2.982          18.67         -104.4          12.39          108.8          33.06          52.05
    0.5005              -48.79          3.075          54.34          62.75         -2.981          18.64         -104.6          12.55          108.8          33.18          52.18
    0.5166              -48.75          3.081          54.34          62.68          -2.98          18.59         -104.7          12.74          108.8          33.31          52.33
    0.5328               -48.7          3.089          54.34          62.59         -2.979          18.54         -104.9          12.96          108.8          33.47          52.51
    0.5489              -48.64          3.097          54.35          62.49         -2.978          18.49         -105.1          13.22          108.7          33.66          52.71
    0.5651              -48.57          3.108          54.35          62.37         -2.976          18.42         -105.3          13.52          108.7          33.87          52.95
    0.5812              -48.49           3.12          54.36          62.23         -2.974          18.34         -105.6          13.88          108.7          34.13          53.24
    0.5974              -48.39          3.134          54.36          62.06         -2.972          18.24         -105.9          14.31          108.6          34.44          53.58
    0.6135              -48.27          3.152          54.37          61.86         -2.969          18.12         -106.3          14.83          108.6          34.81          53.99
    0.6297              -48.13          3.174          54.37          61.61         -2.965          17.98         -106.8          15.47          108.5          35.27           54.5
    0.6458              -47.95          3.201          54.38           61.3          -2.96           17.8         -107.4          16.26          108.5          35.83          55.13
    0.6619              -47.72          3.234          54.39          60.92         -2.955          17.57         -108.1          17.24          108.4          36.54          55.91
    0.6781              -47.44          3.276          54.41          60.44         -2.948          17.29         -109.1          18.48          108.3          37.42          56.89
    0.6942              -47.08           3.33          54.43          59.82         -2.939          16.94         -110.3          20.05          108.1          38.55          58.14
    0.7104              -46.63          3.398          54.45          59.04         -2.928          16.48         -111.8          22.06          108.0          39.99          59.74
    0.7265              -46.04          3.486          54.48          58.03         -2.913          15.89         -113.8          24.64          107.7          41.84          61.79
    0.7427              -45.29          3.598          54.51          56.74         -2.894          15.15         -116.3          27.94          107.4           44.2          64.42
    0.7588              -44.35          3.739          54.56          55.12         -2.871          14.21         -119.5          32.09          107.1          47.17          67.71
     0.775               -43.2          3.911          54.62          53.15         -2.842          13.06         -123.4          37.14          106.6           50.8          71.73
    0.7911              -41.86           4.11          54.69          50.86         -2.809          11.73         -127.8           43.0          106.1          54.99          76.39
    0.8073              -40.42          4.326          54.76          48.38         -2.773          10.29         -132.7          49.35          105.6          59.54          81.43
    0.8234              -38.98          4.541          54.83           45.9         -2.737          8.854         -137.5          55.69          105.0          64.08          86.47
    0.8395              -37.65           4.74           54.9          43.61         -2.704          7.525         -142.0          61.55          104.5          68.28          91.13
    0.8557               -36.5          4.912          54.95          41.64         -2.675          6.379         -145.9           66.6          104.0           71.9          95.15
    0.8718              -35.55          5.053           55.0          40.02         -2.652          5.438         -149.1          70.75          103.7          74.87          98.45
     0.888               -34.8          5.165          55.04          38.73         -2.633           4.69         -151.6          74.05          103.4          77.23          101.1
    0.9041              -34.22          5.253          55.07          37.72         -2.618          4.104         -153.6          76.63          103.2          79.08          103.1
    0.9203              -33.76          5.321          55.09          36.93         -2.607          3.648         -155.1          78.64          103.0          80.52          104.7
    0.9364               -33.4          5.375          55.11          36.32         -2.598          3.291         -156.3          80.22          102.8          81.65          106.0
    0.9526              -33.12          5.417          55.12          35.84         -2.591          3.011         -157.2          81.45          102.7          82.53          107.0
    0.9687               -32.9           5.45          55.13          35.45         -2.585          2.788         -158.0          82.43          102.6          83.24          107.7
    0.9848              -32.72          5.477          55.14          35.15         -2.581          2.609         -158.6          83.22          102.6           83.8          108.4
     1.001              -32.57          5.499          55.15           34.9         -2.577          2.465         -159.1          83.86          102.5          84.26          108.9
     1.017              -32.46          5.517          55.16          34.69         -2.574          2.346         -159.5          84.38          102.5          84.63          109.3
     1.033              -32.36          5.531          55.16          34.52         -2.572          2.248         -159.8          84.81          102.4          84.94          109.6
